<mxfile host="Electron" modified="2023-09-30T03:47:37.297Z" agent="Mozilla/5.0 (Windows NT 10.0; Win64; x64) AppleWebKit/537.36 (KHTML, like Gecko) draw.io/21.7.5 Chrome/114.0.5735.289 Electron/25.8.1 Safari/537.36" etag="JBUmNJT51CiYh7W3Ly2G" version="21.7.5" type="device">
  <diagram id="C5RBs43oDa-KdzZeNtuy" name="Page-1">
    <mxGraphModel dx="1434" dy="844" grid="1" gridSize="10" guides="1" tooltips="1" connect="1" arrows="1" fold="1" page="1" pageScale="1" pageWidth="827" pageHeight="1169" math="0" shadow="0">
      <root>
        <mxCell id="WIyWlLk6GJQsqaUBKTNV-0" />
        <mxCell id="WIyWlLk6GJQsqaUBKTNV-1" parent="WIyWlLk6GJQsqaUBKTNV-0" />
        <mxCell id="0Co82F9giWodguCAjEoe-11" style="edgeStyle=orthogonalEdgeStyle;rounded=0;orthogonalLoop=1;jettySize=auto;html=1;entryX=0.5;entryY=1;entryDx=0;entryDy=0;" edge="1" parent="WIyWlLk6GJQsqaUBKTNV-1" source="0Co82F9giWodguCAjEoe-0" target="0Co82F9giWodguCAjEoe-4">
          <mxGeometry relative="1" as="geometry" />
        </mxCell>
        <UserObject label="User Management Controller" tooltip="Component" id="0Co82F9giWodguCAjEoe-0">
          <mxCell style="rounded=0;whiteSpace=wrap;html=1;fillColor=#ffe6cc;strokeColor=#d79b00;" vertex="1" parent="WIyWlLk6GJQsqaUBKTNV-1">
            <mxGeometry x="40" y="280" width="120" height="60" as="geometry" />
          </mxCell>
        </UserObject>
        <mxCell id="0Co82F9giWodguCAjEoe-12" style="edgeStyle=orthogonalEdgeStyle;rounded=0;orthogonalLoop=1;jettySize=auto;html=1;entryX=0.5;entryY=1;entryDx=0;entryDy=0;" edge="1" parent="WIyWlLk6GJQsqaUBKTNV-1" source="0Co82F9giWodguCAjEoe-1" target="0Co82F9giWodguCAjEoe-0">
          <mxGeometry relative="1" as="geometry" />
        </mxCell>
        <UserObject label="Retrieve Profile" tooltip="Function" id="0Co82F9giWodguCAjEoe-1">
          <mxCell style="shape=process;whiteSpace=wrap;html=1;backgroundOutline=1;fillColor=#d5e8d4;strokeColor=#82b366;" vertex="1" parent="WIyWlLk6GJQsqaUBKTNV-1">
            <mxGeometry x="35" y="420" width="130" height="60" as="geometry" />
          </mxCell>
        </UserObject>
        <mxCell id="0Co82F9giWodguCAjEoe-5" style="edgeStyle=orthogonalEdgeStyle;rounded=0;orthogonalLoop=1;jettySize=auto;html=1;exitX=0.5;exitY=0;exitDx=0;exitDy=0;" edge="1" parent="WIyWlLk6GJQsqaUBKTNV-1" source="0Co82F9giWodguCAjEoe-4">
          <mxGeometry relative="1" as="geometry">
            <mxPoint x="220" y="90" as="targetPoint" />
          </mxGeometry>
        </mxCell>
        <UserObject label="&lt;font style=&quot;font-size: 15px;&quot;&gt;Login&lt;/font&gt;" tooltip="Process" id="0Co82F9giWodguCAjEoe-4">
          <mxCell style="shape=step;perimeter=stepPerimeter;whiteSpace=wrap;html=1;fixedSize=1;fillColor=#dae8fc;strokeColor=#6c8ebf;" vertex="1" parent="WIyWlLk6GJQsqaUBKTNV-1">
            <mxGeometry x="40" y="140" width="120" height="80" as="geometry" />
          </mxCell>
        </UserObject>
        <mxCell id="0Co82F9giWodguCAjEoe-10" value="" style="shape=actor;whiteSpace=wrap;html=1;" vertex="1" parent="WIyWlLk6GJQsqaUBKTNV-1">
          <mxGeometry x="200" y="30" width="40" height="60" as="geometry" />
        </mxCell>
        <mxCell id="0Co82F9giWodguCAjEoe-14" style="edgeStyle=orthogonalEdgeStyle;rounded=0;orthogonalLoop=1;jettySize=auto;html=1;entryX=0.5;entryY=1;entryDx=0;entryDy=0;exitX=0.5;exitY=0;exitDx=0;exitDy=0;" edge="1" parent="WIyWlLk6GJQsqaUBKTNV-1" source="0Co82F9giWodguCAjEoe-13" target="0Co82F9giWodguCAjEoe-10">
          <mxGeometry relative="1" as="geometry" />
        </mxCell>
        <UserObject label="&lt;font style=&quot;font-size: 15px;&quot;&gt;SignUp&lt;/font&gt;" tooltip="Process" id="0Co82F9giWodguCAjEoe-13">
          <mxCell style="shape=step;perimeter=stepPerimeter;whiteSpace=wrap;html=1;fixedSize=1;fillColor=#dae8fc;strokeColor=#6c8ebf;" vertex="1" parent="WIyWlLk6GJQsqaUBKTNV-1">
            <mxGeometry x="260" y="140" width="120" height="80" as="geometry" />
          </mxCell>
        </UserObject>
        <mxCell id="0Co82F9giWodguCAjEoe-16" style="edgeStyle=orthogonalEdgeStyle;rounded=0;orthogonalLoop=1;jettySize=auto;html=1;entryX=0.5;entryY=1;entryDx=0;entryDy=0;" edge="1" parent="WIyWlLk6GJQsqaUBKTNV-1" source="0Co82F9giWodguCAjEoe-15" target="0Co82F9giWodguCAjEoe-13">
          <mxGeometry relative="1" as="geometry" />
        </mxCell>
        <UserObject label="User Management Controller" tooltip="Component" id="0Co82F9giWodguCAjEoe-15">
          <mxCell style="rounded=0;whiteSpace=wrap;html=1;fillColor=#ffe6cc;strokeColor=#d79b00;" vertex="1" parent="WIyWlLk6GJQsqaUBKTNV-1">
            <mxGeometry x="260" y="280" width="120" height="60" as="geometry" />
          </mxCell>
        </UserObject>
        <mxCell id="0Co82F9giWodguCAjEoe-18" style="edgeStyle=orthogonalEdgeStyle;rounded=0;orthogonalLoop=1;jettySize=auto;html=1;entryX=0.5;entryY=1;entryDx=0;entryDy=0;" edge="1" parent="WIyWlLk6GJQsqaUBKTNV-1" source="0Co82F9giWodguCAjEoe-19" target="0Co82F9giWodguCAjEoe-15">
          <mxGeometry relative="1" as="geometry" />
        </mxCell>
        <UserObject label="Create Profile" tooltip="Function" id="0Co82F9giWodguCAjEoe-17">
          <mxCell style="shape=process;whiteSpace=wrap;html=1;backgroundOutline=1;fillColor=#d5e8d4;strokeColor=#82b366;" vertex="1" parent="WIyWlLk6GJQsqaUBKTNV-1">
            <mxGeometry x="255" y="550" width="130" height="60" as="geometry" />
          </mxCell>
        </UserObject>
        <mxCell id="0Co82F9giWodguCAjEoe-20" value="" style="edgeStyle=orthogonalEdgeStyle;rounded=0;orthogonalLoop=1;jettySize=auto;html=1;entryX=0.5;entryY=1;entryDx=0;entryDy=0;" edge="1" parent="WIyWlLk6GJQsqaUBKTNV-1" source="0Co82F9giWodguCAjEoe-17" target="0Co82F9giWodguCAjEoe-19">
          <mxGeometry relative="1" as="geometry">
            <mxPoint x="450" y="470" as="sourcePoint" />
            <mxPoint x="320" y="340" as="targetPoint" />
          </mxGeometry>
        </mxCell>
        <UserObject label="Retrieve Profile" tooltip="Function" id="0Co82F9giWodguCAjEoe-19">
          <mxCell style="shape=process;whiteSpace=wrap;html=1;backgroundOutline=1;fillColor=#d5e8d4;strokeColor=#82b366;" vertex="1" parent="WIyWlLk6GJQsqaUBKTNV-1">
            <mxGeometry x="255" y="420" width="130" height="60" as="geometry" />
          </mxCell>
        </UserObject>
      </root>
    </mxGraphModel>
  </diagram>
</mxfile>
